<?xml version="1.0" encoding="UTF-8"?>
<svg id="Layer_1" data-name="Layer 1" xmlns="http://www.w3.org/2000/svg" viewBox="0 0 222.27 44.09"><defs><style>.cls-1{fill:#0073ae;}.cls-2{fill:#666;}</style></defs><path class="cls-1" d="M35.14,6.46a1.2,1.2,0,0,1,.55.94,31.12,31.12,0,0,0,.13,4.38c0,.52-.19.93-.37.93s-.43-.35-.56-.76A9.38,9.38,0,0,0,32,7.28c-2.27-2-6.15-3-9.59-3A15.46,15.46,0,0,0,11,9.15c-2.34,2.4-4.55,7.65-4.55,13.38a21.6,21.6,0,0,0,5.84,14.25,15.8,15.8,0,0,0,10.89,4.33,14.5,14.5,0,0,0,7.44-1.58,10.39,10.39,0,0,0,4.79-5.84c.25-.82.44-1,.62-1s.37.46.37.87a46.08,46.08,0,0,1-.86,4.79A1.26,1.26,0,0,1,35,39,23.39,23.39,0,0,1,22.9,42.33,21,21,0,0,1,7.16,36a20.19,20.19,0,0,1-5.11-12.8,18.7,18.7,0,0,1,7-15A22.25,22.25,0,0,1,22.9,3.37,28.68,28.68,0,0,1,35.14,6.46Z"/><path class="cls-1" d="M22.9,42.46a21,21,0,0,1-15.83-6.4A20.2,20.2,0,0,1,1.93,23.17a18.72,18.72,0,0,1,7-15.11,22.31,22.31,0,0,1,14-4.82A28.73,28.73,0,0,1,35.2,6.35h0a1.3,1.3,0,0,1,.61,1,18.69,18.69,0,0,0,.06,3.43c0,.42.06.76.06.95,0,.52-.18,1.06-.49,1.06s-.51-.29-.68-.85a9.18,9.18,0,0,0-2.85-4.61c-2.07-1.86-5.71-3-9.51-3A15.32,15.32,0,0,0,11.06,9.24c-2.18,2.23-4.52,7.34-4.52,13.29A21.43,21.43,0,0,0,12.35,36.7,15.73,15.73,0,0,0,23.15,41a14.35,14.35,0,0,0,7.37-1.56,10.32,10.32,0,0,0,4.75-5.77c.24-.82.45-1.14.73-1.14s.49.52.49,1a28.78,28.78,0,0,1-.66,3.85c-.09.43-.17.78-.2,1a1.39,1.39,0,0,1-.54.73A23.35,23.35,0,0,1,22.9,42.46Zm0-39A22,22,0,0,0,9.08,8.25a18.49,18.49,0,0,0-6.9,14.92A19.9,19.9,0,0,0,7.24,35.88,20.83,20.83,0,0,0,22.9,42.21,23.19,23.19,0,0,0,35,38.84a1.2,1.2,0,0,0,.43-.57c0-.17.1-.52.19-1a27.46,27.46,0,0,0,.66-3.8c0-.42-.13-.75-.24-.75s-.24.13-.5,1a10.55,10.55,0,0,1-4.85,5.92,14.64,14.64,0,0,1-7.5,1.59,16,16,0,0,1-11-4.36A21.7,21.7,0,0,1,6.29,22.53c0-6,2.38-11.2,4.59-13.47A15.57,15.57,0,0,1,22.41,4.12c3,0,7.16.8,9.68,3.07A9.52,9.52,0,0,1,35,11.92c.13.42.29.67.44.67s.24-.29.24-.81c0-.18,0-.51-.06-.93a19.11,19.11,0,0,1-.06-3.47,1.06,1.06,0,0,0-.5-.81A28.39,28.39,0,0,0,22.9,3.49Z"/><path class="cls-1" d="M98,40.4c-1.61-.34-2.16-.79-3.85-4.43-4.5-9.48-7.15-15.24-12-27V9A22.13,22.13,0,0,1,80.3,4c-.11-.29-.25-.55-.57-.55s-.43.36-.49.6l0,.08a5.48,5.48,0,0,1-1.64,2.72L77.45,7a1.38,1.38,0,0,0-.24.74,3.78,3.78,0,0,1-.37,1.64c-3.16,7.09-9.73,21.85-11.56,25.35l-.07.13c-.42-.47-.86-1-1.35-1.55a119.41,119.41,0,0,1-7.6-10.43c-.1-.21-.33-.71-.26-.89a.12.12,0,0,1,0-.05,15.2,15.2,0,0,0,4.14-1.95,7.56,7.56,0,0,0,3.91-6.76,8.42,8.42,0,0,0-4.25-7.12c-2.29-1.44-5-2.06-9-2.06-1.08,0-2.21.07-3.41.14s-2.53.15-3.81.15c-1.49,0-2.65-.08-3.59-.15-.58,0-1-.08-1.4-.08-1.17,0-1.34.3-1.34.47,0,.41.63.53,1.25.65,2.81.41,2.87,1.21,3,2.81l0,.38c.14,1.91.37,5.11.37,12.76,0,7.46-.1,12.3-.33,16.17-.2,2.38-.87,2.87-2.94,3.22-1,.19-1.45.3-1.45.65s.43.53,1.27.53c.54,0,1.2-.05,2-.11,1-.08,2.33-.18,3.78-.18a30.54,30.54,0,0,1,3.09.17c.68.06,1.27.12,1.9.12s1.48-.14,1.48-.53-.38-.48-1.12-.6c-2.42-.34-2.83-.91-3.08-1.55A25.86,25.86,0,0,1,46,33.74c-.07-2.46,0-9.82.13-10.36A.61.61,0,0,1,46.7,23a12.83,12.83,0,0,1,3.35.23,4.42,4.42,0,0,1,2,1.31c.34.36,1.33,1.69,2.58,3.36,2.23,3,5.29,7.08,7.47,9.5s4.93,4.65,9.41,4.65a10.67,10.67,0,0,0,2.6-.24c.59-.19.9-.39.9-.59s-.43-.47-1-.47a8.24,8.24,0,0,1-5.24-2.37c-.54-.46-1.07-1-1.62-1.5.09-.37.2-.77.35-1.23a89.4,89.4,0,0,1,3.55-8.74,3.25,3.25,0,0,1,.79-1.1c.51,0,2,0,3.79,0,3.27,0,7.34,0,8.86-.14.13,0,.48.29.66.63.35.81.69,1.62,1,2.41,1.9,4.48,3.69,8.71,3.69,9.28,0,1,0,2.16-2.86,2.51-.52,0-1.34.27-1.34.65s.44.53,1.16.53,1.58,0,2.57-.1,2.32-.13,3.24-.13c2.25,0,3.33.07,4.12.12.41,0,.74,0,1.11,0s1.29,0,1.29-.53C99.16,40.77,98.69,40.52,98,40.4ZM72.57,23.47l0-.08c.86-2.34,3.44-8.84,5.29-12.9a1.42,1.42,0,0,1,.19-.34s0,0,.1.16l.58,1.25c1.07,2.29,2.54,5.44,5,11.59a.88.88,0,0,1,0,.36s0,.07,0,.1a46.62,46.62,0,0,1-5.87.2c-2.48,0-4.13,0-5.16-.06a.11.11,0,0,1-.09-.05A.37.37,0,0,1,72.57,23.47ZM46.42,5.52a6.22,6.22,0,0,1,2.17-.39c3.69,0,6.22.71,8.22,2.31a8.09,8.09,0,0,1,2.78,6.62,8.09,8.09,0,0,1-4,6.61c-1.34.75-5.57,1.21-7.43,1.21a17.36,17.36,0,0,1-1.82-.06c-.22,0-.35-.34-.35-.93,0-2.22,0-13.37.07-14.48.06-.78.2-.83.29-.87Zm-.06-.11Z"/><path class="cls-2" d="M111.41,5a.57.57,0,0,1,.25.45,16.05,16.05,0,0,0,.06,2.1c0,.25-.09.45-.17.45s-.2-.17-.25-.37A4.56,4.56,0,0,0,110,5.35a6.62,6.62,0,0,0-4.37-1.45,6.87,6.87,0,0,0-5.2,2.35,10.15,10.15,0,0,0-2.08,6.41A10.62,10.62,0,0,0,101,19.49a7,7,0,0,0,5,2.07,6.4,6.4,0,0,0,3.39-.75,5,5,0,0,0,2.18-2.8c.11-.39.2-.5.28-.5s.17.22.17.42c0,.47-.34,2-.39,2.29a.6.6,0,0,1-.23.31,10.21,10.21,0,0,1-5.51,1.62,9.31,9.31,0,0,1-7.17-3A9.94,9.94,0,0,1,96.35,13a9.17,9.17,0,0,1,3.16-7.2,9.85,9.85,0,0,1,6.33-2.29A12.59,12.59,0,0,1,111.41,5Z"/><path class="cls-2" d="M105.84,22.28a9.41,9.41,0,0,1-7.26-3.09A10,10,0,0,1,96.22,13a9.22,9.22,0,0,1,3.21-7.29,9.85,9.85,0,0,1,6.41-2.33,12.6,12.6,0,0,1,5.63,1.5h0a.7.7,0,0,1,.31.55,9,9,0,0,0,0,1.64c0,.2,0,.37,0,.46,0,.28-.1.57-.29.57s-.28-.15-.37-.45a4.45,4.45,0,0,0-1.28-2.18A6.45,6.45,0,0,0,105.61,4a6.76,6.76,0,0,0-5.11,2.31,10,10,0,0,0-2,6.33,10.44,10.44,0,0,0,2.63,6.75,6.88,6.88,0,0,0,4.86,2,6.17,6.17,0,0,0,3.32-.74A4.76,4.76,0,0,0,111.4,18c.11-.36.21-.59.4-.59s.3.29.3.55a14.76,14.76,0,0,1-.31,1.85c0,.21-.07.37-.09.46a.7.7,0,0,1-.27.39A10.34,10.34,0,0,1,105.84,22.28Zm0-18.68a9.8,9.8,0,0,0-6.25,2.27A9,9,0,0,0,96.47,13a9.87,9.87,0,0,0,2.29,6,9.15,9.15,0,0,0,7.08,3,10,10,0,0,0,5.45-1.61.46.46,0,0,0,.17-.23c0-.08,0-.25.09-.46a15.22,15.22,0,0,0,.3-1.8.73.73,0,0,0,0-.28,1.35,1.35,0,0,0-.16.39,5.08,5.08,0,0,1-2.24,2.88,6.53,6.53,0,0,1-3.45.77,7.15,7.15,0,0,1-5-2.11,10.76,10.76,0,0,1-2.69-6.92,10.32,10.32,0,0,1,2.1-6.5,7,7,0,0,1,5.3-2.39,6.79,6.79,0,0,1,4.46,1.49,4.77,4.77,0,0,1,1.35,2.3.85.85,0,0,0,.11.26.66.66,0,0,0,.06-.31c0-.09,0-.25,0-.44a9.4,9.4,0,0,1,0-1.68.44.44,0,0,0-.2-.32A12.26,12.26,0,0,0,105.84,3.6Z"/><path class="cls-2" d="M116.29,13.42a1.69,1.69,0,0,0-.28,1.17,52.79,52.79,0,0,0,.14,5.8,1,1,0,0,0,.9.92c.47.09.67.14.67.28s-.17.17-.39.17c-.76,0-1.35-.11-2.27-.11-.73,0-1.18.11-1.65.11-.31,0-.42-.06-.42-.17s.11-.14.44-.22c.82-.2,1-.25,1.1-1.37s.11-3.73.11-8.46c0-4.23,0-5.8,0-6.94,0-.9-.28-1-.84-1.32-.14-.08-.2-.14-.2-.22s.17-.14.45-.23a8.28,8.28,0,0,0,1.71-.59.69.69,0,0,1,.25-.08s.14.23.11.59c0,.9-.11,9.63-.11,10.22,0,.11.08.11.11.08a8.91,8.91,0,0,1,1.76-1.23,4.75,4.75,0,0,1,2-.5,2.92,2.92,0,0,1,2.46,1.29,5.45,5.45,0,0,1,.62,3c0,2.18,0,3.95,0,4.87,0,.59.14.7,1,.84.37.09.45.17.45.25s-.16.2-.45.2c-.67,0-1.28-.14-1.9-.14-.78,0-1.06.11-1.6.11-.33,0-.47-.08-.47-.17s.17-.16.45-.22c.7-.11.78-.31.89-1.06a43.76,43.76,0,0,0,.14-5,4,4,0,0,0-.45-2,2.22,2.22,0,0,0-2-1.07A3.86,3.86,0,0,0,116.29,13.42Z"/><path class="cls-2" d="M124.07,21.91a8,8,0,0,1-1-.07c-.31,0-.6-.07-.9-.07a6.71,6.71,0,0,0-.94.07,6.35,6.35,0,0,1-.66.05c-.54,0-.6-.21-.6-.3s.32-.3.55-.34c.63-.1.69-.23.8-1a43.82,43.82,0,0,0,.14-4.94,4,4,0,0,0-.44-2,2.1,2.1,0,0,0-1.93-1,3.76,3.76,0,0,0-2.71,1.13h0c-.07.08-.24.33-.24,1.09,0,4.49.09,5.38.13,5.72v.07a.89.89,0,0,0,.8.81c.43.08.77.14.77.4s-.21.3-.51.3-.69,0-1-.06-.76-.06-1.24-.06a8.49,8.49,0,0,0-1,.07c-.23,0-.44.05-.66.05s-.55,0-.55-.3.23-.26.54-.34c.81-.2.95-.23,1-1.26s.11-3.5.11-8.45c0-2.15,0-3.62,0-4.69s0-1.69,0-2.25c0-.76-.2-.87-.67-1.15l-.11-.06c-.13-.08-.25-.17-.25-.33s.09-.21.53-.35l.23-.06a7.74,7.74,0,0,0,1.46-.52A.79.79,0,0,1,116,2h0l.07,0a1.06,1.06,0,0,1,.12.67c0,.82-.11,8.9-.12,10.11a8.88,8.88,0,0,1,1.7-1.16,4.7,4.7,0,0,1,2.1-.52,3.11,3.11,0,0,1,2.57,1.34,5.57,5.57,0,0,1,.63,3.1c0,1.09,0,2.08,0,2.91s0,1.5,0,2,0,.58.9.72c.3.06.56.16.56.37S124.5,21.91,124.07,21.91Zm-1.9-.39c.31,0,.61,0,.92.07a7.93,7.93,0,0,0,1,.07.55.55,0,0,0,.33-.07h0a1,1,0,0,0-.35-.13c-.91-.14-1.08-.29-1.11-.95,0-.47,0-1.13,0-2s0-1.82,0-2.91a5.23,5.23,0,0,0-.59-3A2.83,2.83,0,0,0,120,11.44a4.65,4.65,0,0,0-2,.49,8.67,8.67,0,0,0-1.73,1.21.18.18,0,0,1-.2,0,.21.21,0,0,1-.13-.21c0-.47.09-9.27.12-10.23a1.37,1.37,0,0,0,0-.44.37.37,0,0,0-.15.06,8.23,8.23,0,0,1-1.5.53l-.23.06a1.22,1.22,0,0,0-.34.14l.12.08.11.07a1.27,1.27,0,0,1,.79,1.35c0,.57,0,1.24,0,2.26s0,2.54,0,4.69c0,5,0,7.33-.11,8.47s-.31,1.27-1.19,1.48a1,1,0,0,0-.35.12,1.07,1.07,0,0,0,.3,0c.2,0,.4,0,.63-.05a9.07,9.07,0,0,1,1-.07c.49,0,.88,0,1.26.06s.65.06,1,.06a.48.48,0,0,0,.27-.07,2.7,2.7,0,0,0-.57-.13,1.13,1.13,0,0,1-1-1v-.08c0-.34-.13-1.25-.13-5.75a1.79,1.79,0,0,1,.31-1.26,4,4,0,0,1,2.89-1.21,2.34,2.34,0,0,1,2.15,1.12,4.26,4.26,0,0,1,.47,2.11,44.62,44.62,0,0,1-.14,5c-.12.79-.22,1.05-1,1.17a1,1,0,0,0-.33.1.8.8,0,0,0,.33.05,6,6,0,0,0,.63-.05A7.09,7.09,0,0,1,122.17,21.52Z"/><path class="cls-2" d="M132,12.86a11.08,11.08,0,0,1,.25,2.46c0,.9-.11,3.7-.11,4.42a1,1,0,0,0,1.09,1.12,1.77,1.77,0,0,0,.84-.25c.17-.08.28-.05.17.23a2.17,2.17,0,0,1-2,1.12,1.82,1.82,0,0,1-1.57-1.26.09.09,0,0,0-.14,0,4.1,4.1,0,0,1-2.77,1.26,2.26,2.26,0,0,1-2.21-2.35,1.85,1.85,0,0,1,1-1.54,37.65,37.65,0,0,1,3.78-1.38.64.64,0,0,0,.39-.42c0-.33.05-.81.05-1.28,0-1.15-.19-2.05-.7-2.41a2.27,2.27,0,0,0-1.2-.45,1.91,1.91,0,0,0-1.18.39,1.38,1.38,0,0,0-.5.76,1.72,1.72,0,0,0,0,.42.31.31,0,0,1-.11.22,5.29,5.29,0,0,1-1.15.51.27.27,0,0,1-.22-.25c0-.14.11-.31.42-.71a7.8,7.8,0,0,1,2.13-1.65,3.52,3.52,0,0,1,1.59-.47A2.25,2.25,0,0,1,132,12.86Zm-1.74,7.61a1.39,1.39,0,0,0,.37-.73,20.28,20.28,0,0,0,.14-2.6s-.06-.17-.11-.14a21.29,21.29,0,0,0-2.92,1.06,1.49,1.49,0,0,0-.64,1.38A1.64,1.64,0,0,0,128.87,21,2.08,2.08,0,0,0,130.27,20.47Z"/><path class="cls-2" d="M132.29,22.08a2,2,0,0,1-1.67-1.28,4.19,4.19,0,0,1-2.81,1.25,2.38,2.38,0,0,1-2.34-2.47,2.05,2.05,0,0,1,1.08-1.66,34.66,34.66,0,0,1,3.52-1.29l.28-.08a.53.53,0,0,0,.3-.32c0-.31.06-.79.06-1.27,0-1.21-.23-2-.65-2.31a2.2,2.2,0,0,0-1.13-.42,1.72,1.72,0,0,0-1.11.37,1.26,1.26,0,0,0-.45.68,2.18,2.18,0,0,0,0,.39.47.47,0,0,1-.15.31,4.86,4.86,0,0,1-1.24.54.39.39,0,0,1-.35-.37c0-.18.11-.36.45-.78a7.8,7.8,0,0,1,2.17-1.69,3.61,3.61,0,0,1,1.65-.49,2.37,2.37,0,0,1,2.25,1.63h0a11.11,11.11,0,0,1,.26,2.5c0,.47,0,1.46-.06,2.42s-.05,1.66-.05,2c0,.66.32,1,1,1a1.65,1.65,0,0,0,.78-.24q.22-.11.33,0c.11.1.06.27,0,.38A2.27,2.27,0,0,1,132.29,22.08Zm-1.65-1.55h0a.19.19,0,0,1,.15.11,1.69,1.69,0,0,0,1.46,1.19,2,2,0,0,0,1.84-1,.41.41,0,0,0,0-.08h0a1.91,1.91,0,0,1-.9.27A1.11,1.11,0,0,1,132,19.74c0-.34,0-1.15.05-2s.06-1.94.06-2.41a11.07,11.07,0,0,0-.25-2.42,2.11,2.11,0,0,0-2-1.46,3.41,3.41,0,0,0-1.54.46,7.89,7.89,0,0,0-2.09,1.62c-.25.33-.39.52-.39.63a.16.16,0,0,0,.1.12,5.47,5.47,0,0,0,1.08-.48.2.2,0,0,0,.06-.12,2.08,2.08,0,0,1,0-.45,1.45,1.45,0,0,1,.54-.82,2,2,0,0,1,1.26-.42,2.4,2.4,0,0,1,1.28.47c.5.36.75,1.2.75,2.51,0,.49,0,1-.06,1.29a.76.76,0,0,1-.48.53l-.27.09a34.36,34.36,0,0,0-3.48,1.28,1.73,1.73,0,0,0-1,1.43,2.13,2.13,0,0,0,2.09,2.22,4,4,0,0,0,2.69-1.23A.2.2,0,0,1,130.64,20.53Zm0,.23h0Zm-1.8.31A1.76,1.76,0,0,1,127,19.44a1.58,1.58,0,0,1,.71-1.48,19.89,19.89,0,0,1,2.94-1.08.14.14,0,0,1,.14,0,.32.32,0,0,1,.13.24,20.35,20.35,0,0,1-.14,2.63,1.48,1.48,0,0,1-.4.79h0A2.29,2.29,0,0,1,128.87,21.07Zm1.78-3.94a21.05,21.05,0,0,0-2.84,1.05,1.32,1.32,0,0,0-.58,1.26,1.51,1.51,0,0,0,1.64,1.38,2,2,0,0,0,1.32-.44,1.16,1.16,0,0,0,.32-.66,19.34,19.34,0,0,0,.14-2.58h0Z"/><path class="cls-2" d="M138.81,13.28a1.86,1.86,0,0,0-.56,1.12c0,.25,0,.92,0,1.51,0,2.1.06,3.67.12,4.23.11.89.5,1.09,1.59,1.17.39.06.53.12.53.25s-.25.2-.7.2-1.51-.11-2.63-.11a12.54,12.54,0,0,0-1.45.17c-.31,0-.42,0-.42-.14s.19-.23.39-.28a1.2,1.2,0,0,0,1-1.15c.06-.48.09-2.07.09-3.92V13.11c0-.22-.25-.31-.73-.7-.2-.14-.22-.22-.22-.28s.16-.17.47-.25a8.32,8.32,0,0,0,1.4-.56.83.83,0,0,1,.39-.14c.06,0,.11.08.11.42s0,1.42,0,1.79c0,0,.05.08.14,0,.81-1,2-2,3.08-2a1.62,1.62,0,0,1,1,.39.53.53,0,0,1,.11.34,1.4,1.4,0,0,1-.51.76c-.25.22-.33.22-.42.22a1.53,1.53,0,0,1-.5-.2,2,2,0,0,0-.92-.28A2.14,2.14,0,0,0,138.81,13.28Z"/><path class="cls-2" d="M135.68,21.94c-.23,0-.55,0-.55-.26s.28-.35.48-.4a1.08,1.08,0,0,0,.95-1.05c.05-.43.08-1.89.08-3.9V13.11c0-.09-.07-.15-.3-.31l-.38-.29c-.18-.14-.27-.25-.27-.38s.36-.32.57-.37a8.13,8.13,0,0,0,1.37-.55.93.93,0,0,1,.45-.16c.24,0,.24.37.24.55s0,.38,0,.71,0,.66,0,.9c.81-.91,2-1.93,3.1-1.93a1.71,1.71,0,0,1,1.09.42.62.62,0,0,1,.15.43,1.41,1.41,0,0,1-.55.85c-.26.24-.37.25-.5.25A1.38,1.38,0,0,1,141,13a1.81,1.81,0,0,0-.86-.26,2,2,0,0,0-1.26.61,1.67,1.67,0,0,0-.52,1c0,.25,0,.91,0,1.5,0,2.14.06,3.69.11,4.21.1.78.37,1,1.48,1.07.31,0,.65.09.65.37s-.42.33-.83.33l-.74,0c-.5,0-1.2-.08-1.89-.08a6,6,0,0,0-1,.11A1.91,1.91,0,0,1,135.68,21.94Zm-.28-.27a1.4,1.4,0,0,0,.65,0,5.4,5.4,0,0,1,1.08-.12c.7,0,1.4.05,1.91.08l.72,0c.51,0,.58-.08.58-.09s-.32-.1-.43-.11c-1.07-.09-1.57-.29-1.7-1.29-.05-.55-.11-2.08-.11-4.24,0-.6,0-1.27,0-1.53a2,2,0,0,1,.59-1.19h0a2.23,2.23,0,0,1,1.43-.68,2,2,0,0,1,1,.29,1.35,1.35,0,0,0,.44.18c.06,0,.12,0,.34-.19a1.28,1.28,0,0,0,.46-.66.41.41,0,0,0-.07-.25,1.42,1.42,0,0,0-.92-.35c-1.1,0-2.23,1.05-3,1.94-.12.12-.22.1-.25.08a.16.16,0,0,1-.11-.16c0-.21,0-.67,0-1.09s0-.6,0-.7a1,1,0,0,0,0-.29.91.91,0,0,0-.29.12,7.73,7.73,0,0,1-1.43.57,1.33,1.33,0,0,0-.37.15.58.58,0,0,0,.16.16l.38.29c.24.17.4.29.4.51v3.22c0,2,0,3.49-.08,3.93a1.34,1.34,0,0,1-1.13,1.26A.77.77,0,0,0,135.4,21.67Z"/><path class="cls-2" d="M146.34,14.85c0,3.47,0,4.87.08,5.43s.17.92,1,1c.17,0,.39.12.39.2s-.17.19-.59.19-1.23-.05-1.73-.05c-.73,0-1.49.05-1.77.05s-.47,0-.47-.16.11-.14.53-.26c.7-.13.87-.42,1-1.65.08-1,.17-5.54.2-9.15,0-2.58,0-4.62,0-6,0-.58,0-.73-.79-1.2-.19-.11-.25-.14-.25-.22s.14-.17.39-.23a12.51,12.51,0,0,0,1.79-.59,1.29,1.29,0,0,1,.31-.08c.06,0,.09.17.09.33s-.14,5.1-.14,9Z"/><path class="cls-2" d="M147.2,21.83l-.64,0c-.38,0-.81,0-1.09,0-.45,0-.92,0-1.26,0l-.51,0c-.29,0-.6,0-.6-.29s.17-.25.61-.37c.63-.13.79-.32.91-1.55.08-1,.16-5.5.19-9.14,0-.94,0-1.81,0-2.59,0-1.41,0-2.52,0-3.37,0-.55,0-.65-.72-1.1l0,0c-.18-.11-.28-.16-.28-.31s.16-.28.49-.35A13.06,13.06,0,0,0,146,2.16l.05,0a1.11,1.11,0,0,1,.3-.08c.14,0,.21.15.21.46,0,0,0,.24,0,.55,0,1.44-.13,5.27-.13,8.47v3.31c0,2.46,0,4.28.08,5.42,0,.64.12.81.88.92.08,0,.5.09.5.32S147.68,21.83,147.2,21.83Zm-1.73-.31c.29,0,.72,0,1.1,0l.63,0a1.16,1.16,0,0,0,.44-.06.66.66,0,0,0-.26-.08c-.89-.13-1-.41-1.09-1.16,0-1.14-.08-3-.08-5.43V11.54c0-3.2.09-7,.13-8.47,0-.32,0-.51,0-.55a.88.88,0,0,0,0-.2l-.16.05,0,0a11.15,11.15,0,0,1-1.8.59.74.74,0,0,0-.3.12l.16.08,0,0c.78.49.85.66.85,1.31,0,.86,0,2,0,3.38,0,.78,0,1.65,0,2.59,0,3.64-.11,8.2-.2,9.16-.1,1.21-.27,1.61-1.08,1.77a2,2,0,0,0-.43.14,1,1,0,0,0,.35,0l.5,0C144.54,21.55,145,21.52,145.47,21.52Z"/><path class="cls-2" d="M157,14.12a.3.3,0,0,1-.25.25c-.2,0-3.92-.09-4.51-.09H150.5c-.05,0-.22.17-.28.26a3.71,3.71,0,0,0-.25,1.68,5.08,5.08,0,0,0,1.32,3.41,3.83,3.83,0,0,0,2.94,1.21,3.61,3.61,0,0,0,2.68-.93c.26-.22.34-.17.34-.05a.94.94,0,0,1-.31.47,4.8,4.8,0,0,1-3.8,1.63,4.42,4.42,0,0,1-3.25-1.43,5.38,5.38,0,0,1-1.35-3.75,5.93,5.93,0,0,1,1.52-4,5.23,5.23,0,0,1,3.52-1.45C155.07,11.32,157,12.35,157,14.12Zm-5.88-1.32a2.2,2.2,0,0,0-.56,1,.13.13,0,0,0,.09.11l4.06,0c.55,0,.61-.25.61-.5a1.69,1.69,0,0,0-.39-1.12,2.32,2.32,0,0,0-1.57-.56A3.39,3.39,0,0,0,151.09,12.8Z"/><path class="cls-2" d="M153.14,22.08a4.52,4.52,0,0,1-3.34-1.47,5.46,5.46,0,0,1-1.38-3.83A6.15,6.15,0,0,1,150,12.69a5.43,5.43,0,0,1,3.62-1.5c1.48,0,3.52,1,3.52,2.93a.42.42,0,0,1-.38.37l-1.31,0-3.2-.06H150.5a1.39,1.39,0,0,0-.17.2,3.47,3.47,0,0,0-.23,1.61,5,5,0,0,0,1.28,3.33,3.77,3.77,0,0,0,2.85,1.16,3.53,3.53,0,0,0,2.6-.89c.13-.11.29-.23.43-.17a.21.21,0,0,1,.12.21,1.09,1.09,0,0,1-.35.56A5,5,0,0,1,153.14,22.08Zm.44-10.64a5.15,5.15,0,0,0-3.44,1.42,5.93,5.93,0,0,0-1.47,3.92A5.21,5.21,0,0,0,150,20.44a4.28,4.28,0,0,0,3.16,1.39,4.7,4.7,0,0,0,3.72-1.59,1.31,1.31,0,0,0,.24-.32L157,20a3.76,3.76,0,0,1-2.77.95,4,4,0,0,1-3-1.24,5.24,5.24,0,0,1-1.34-3.5,3.87,3.87,0,0,1,.26-1.74s.24-.32.39-.32h1.71l3.21.06,1.3,0s.13-.08.13-.12C156.85,12.39,154.92,11.44,153.58,11.44Zm-3,2.61a.24.24,0,0,1-.21-.24,2.18,2.18,0,0,1,.59-1.09h0a3.45,3.45,0,0,1,2.32-1.13,2.39,2.39,0,0,1,1.65.6,1.77,1.77,0,0,1,.44,1.21c0,.29-.09.63-.74.63Zm0-.24Zm.52-.92a2.18,2.18,0,0,0-.52.91l4,0c.49,0,.49-.19.49-.38a1.55,1.55,0,0,0-.36-1,2.15,2.15,0,0,0-1.48-.53A3.24,3.24,0,0,0,151.18,12.89Z"/><path class="cls-2" d="M160.57,13.56a2.81,2.81,0,0,0,1.65,2.24c1.85,1.17,2.58,1.87,2.58,3.3a2.73,2.73,0,0,1-1.51,2.33,4,4,0,0,1-2,.55,5.15,5.15,0,0,1-2.13-.5.52.52,0,0,1-.37-.42c0-.39-.05-1-.08-1.34s0-.42.08-.42.14,0,.34.53a2.65,2.65,0,0,0,1.18,1.43,2.37,2.37,0,0,0,1.2.33,2.06,2.06,0,0,0,1.9-2c0-1.15-.78-1.74-1.79-2.38s-2.32-1.63-2.32-3a2.69,2.69,0,0,1,.89-2.07,3.58,3.58,0,0,1,2.36-.84,6.3,6.3,0,0,1,1.79.3.43.43,0,0,1,.14.23c0,.31.14.89.17,1.23s-.06.45-.15.45-.14-.14-.22-.34a2.19,2.19,0,0,0-.67-1.06,2.22,2.22,0,0,0-1.26-.39A1.67,1.67,0,0,0,160.57,13.56Z"/><path class="cls-2" d="M161.25,22.11a5.5,5.5,0,0,1-2.18-.51.66.66,0,0,1-.44-.54c0-.33,0-.84-.07-1.18l0-.15c0-.24,0-.4.06-.49a.21.21,0,0,1,.15-.07c.15,0,.26.1.46.62a2.51,2.51,0,0,0,1.12,1.36,2.21,2.21,0,0,0,1.14.32,2,2,0,0,0,1.78-1.89c0-1.08-.75-1.65-1.74-2.28s-2.38-1.69-2.38-3.07a2.79,2.79,0,0,1,.94-2.17,3.69,3.69,0,0,1,2.44-.87,6.37,6.37,0,0,1,1.83.32.46.46,0,0,1,.22.34c0,.14.05.35.08.57s.07.47.09.65,0,.58-.27.58-.23-.15-.29-.31l-.08-.19a1.88,1.88,0,0,0-.6-.92,2.07,2.07,0,0,0-1.18-.37,1.55,1.55,0,0,0-1.61,1.7,2.63,2.63,0,0,0,1.59,2.13c1.86,1.18,2.64,1.92,2.64,3.41a2.83,2.83,0,0,1-1.58,2.43A4.08,4.08,0,0,1,161.25,22.11Zm-2.47-2.66a.74.74,0,0,0,0,.25l0,.16c0,.34.07.86.07,1.2a.4.4,0,0,0,.28.3,5,5,0,0,0,2.09.5,3.87,3.87,0,0,0,2-.54,2.61,2.61,0,0,0,1.46-2.22c0-1.35-.66-2-2.52-3.2a2.93,2.93,0,0,1-1.71-2.34,1.8,1.8,0,0,1,1.86-2,2.34,2.34,0,0,1,1.33.42,2.14,2.14,0,0,1,.68,1l.08.2a.43.43,0,0,0,0,.12,1.16,1.16,0,0,0,0-.29c0-.16,0-.4-.09-.63l-.08-.59a.33.33,0,0,0-.07-.13,6.46,6.46,0,0,0-1.73-.29,3.46,3.46,0,0,0-2.28.81,2.58,2.58,0,0,0-.85,2c0,1.26,1.21,2.19,2.27,2.86s1.85,1.28,1.85,2.49a2.21,2.21,0,0,1-2,2.14,2.51,2.51,0,0,1-1.27-.36A2.79,2.79,0,0,1,159,19.87,2,2,0,0,0,158.78,19.45Z"/><path class="cls-2" d="M182.13,4.82a4.09,4.09,0,0,1,1.73,3.36,3.66,3.66,0,0,1-1.59,3.19,6.17,6.17,0,0,1-1.71.93c-.12,0-.06.25.05.53a55.72,55.72,0,0,0,3.17,5,21,21,0,0,0,2,2.47A3.34,3.34,0,0,0,188,21.45c.23,0,.37.09.37.17s-.12.14-.34.23A3.87,3.87,0,0,1,187,22a4.84,4.84,0,0,1-3.87-2.22c-1.43-1.81-3.78-5.68-4.17-6.15a1.82,1.82,0,0,0-.87-.65,4.32,4.32,0,0,0-1.4-.11.3.3,0,0,0-.28.22c0,.28-.08,3.87,0,5a14.24,14.24,0,0,0,.22,2.54c.11.34.31.62,1.32.79.3.06.42.11.42.22s-.23.2-.56.2c-.59,0-1.12-.14-2.07-.14s-1.85.14-2.38.14c-.28,0-.48-.06-.48-.2s.2-.16.56-.25c.87-.17,1.18-.42,1.26-1.6.08-1.59.14-3.69.14-7.75s-.11-5.4-.17-6.3-.11-1.21-1.29-1.4c-.25-.06-.47-.11-.47-.25s.14-.17.5-.17,1.07.11,2.07.11,2.08-.14,3-.14A5.91,5.91,0,0,1,182.13,4.82Zm-5.58-.36c-.05,0-.14,0-.16.47s0,6.5,0,7,.11.5.19.5a6,6,0,0,0,.76,0,8.21,8.21,0,0,0,3.11-.59A4.07,4.07,0,0,0,182.1,8.6a4.2,4.2,0,0,0-1.18-3.22,4.67,4.67,0,0,0-3.44-1.12A2.18,2.18,0,0,0,176.55,4.46Z"/><path class="cls-2" d="M187,22.08a5,5,0,0,1-4-2.26c-.92-1.16-2.19-3.13-3.11-4.56-.52-.8-.93-1.43-1.06-1.6a1.81,1.81,0,0,0-.81-.6A4.3,4.3,0,0,0,176.7,13a.2.2,0,0,0-.17.13c-.05.26-.08,3.77-.05,5a13.26,13.26,0,0,0,.22,2.51c.1.29.25.54,1.22.71.22,0,.52.09.52.34s-.25.32-.68.32a7.47,7.47,0,0,1-.8-.05,10.32,10.32,0,0,0-1.27-.09c-.6,0-1.14.05-1.56.09s-.6.05-.82.05c-.5,0-.61-.17-.61-.32s.28-.28.66-.37c.83-.16,1.09-.38,1.17-1.48.09-1.85.13-4.16.13-7.75s-.09-5.21-.15-6.13V5.7c-.06-.76-.08-1.1-1.19-1.29-.27-.06-.58-.13-.58-.37s.08-.3.63-.3c.16,0,.35,0,.59,0,.39,0,.87.08,1.48.08s1.06,0,1.58-.08,1-.06,1.42-.06a6,6,0,0,1,3.77,1A4.25,4.25,0,0,1,184,8.18a3.76,3.76,0,0,1-1.65,3.29,6,6,0,0,1-1.74.94,2.62,2.62,0,0,0,.13.37,57.48,57.48,0,0,0,3.15,5,22.6,22.6,0,0,0,2,2.45A3.14,3.14,0,0,0,188,21.33c.29,0,.49.12.49.29s0,.2-.41.34A3.78,3.78,0,0,1,187,22.08Zm-9.95-9.38a3.92,3.92,0,0,1,1.08.12,2,2,0,0,1,.93.68c.15.18.54.79,1.08,1.62.92,1.43,2.19,3.4,3.09,4.55A4.74,4.74,0,0,0,187,21.83a3.83,3.83,0,0,0,1-.1,1.11,1.11,0,0,0,.23-.12.68.68,0,0,0-.22,0,3.4,3.4,0,0,1-2.3-1.19,20.94,20.94,0,0,1-2-2.47,58.47,58.47,0,0,1-3.18-5c-.1-.26-.23-.59,0-.7a6.43,6.43,0,0,0,1.68-.91,3.57,3.57,0,0,0,1.56-3.1,3.94,3.94,0,0,0-1.69-3.26h0A5.75,5.75,0,0,0,178.43,4c-.45,0-.91,0-1.4.06s-1.06.08-1.6.08-1.13-.05-1.5-.08-.42,0-.57,0c-.32,0-.38.07-.38.07a1.77,1.77,0,0,0,.38.11c1.24.2,1.33.66,1.39,1.51v.17c.06.91.15,2.45.15,6.14s0,5.91-.13,7.76c-.1,1.27-.48,1.54-1.37,1.71a2.06,2.06,0,0,0-.46.15h0a.9.9,0,0,0,.36.05c.21,0,.48,0,.79-.05s1-.09,1.59-.09a10.71,10.71,0,0,1,1.3.09,7.09,7.09,0,0,0,.77.05.7.7,0,0,0,.44-.09s-.06,0-.32-.08c-1-.16-1.28-.44-1.42-.87a13.85,13.85,0,0,1-.23-2.58c0-1.11,0-4.72.06-5a.43.43,0,0,1,.4-.33Zm.26-.17a6.28,6.28,0,0,1-.78,0h0c-.13,0-.3-.11-.3-.62,0-1.07,0-6.42,0-7s.1-.52.23-.58h0a2.4,2.4,0,0,1,1-.21A4.82,4.82,0,0,1,181,5.29a4.37,4.37,0,0,1,1.21,3.31,4.15,4.15,0,0,1-1.73,3.32A8.38,8.38,0,0,1,177.31,12.53Zm.17-8.14a2.25,2.25,0,0,0-.86.17l0,0s-.06,0-.08.36c0,.53,0,5.87,0,6.94,0,.33.08.38.08.38.17,0,.53,0,.75,0a8.2,8.2,0,0,0,3-.56A3.93,3.93,0,0,0,182,8.6a4.14,4.14,0,0,0-1.13-3.13A4.61,4.61,0,0,0,177.48,4.39Z"/><path class="cls-2" d="M188.79,12.1a13.9,13.9,0,0,0,1.71-.67,1.51,1.51,0,0,1,.44-.2c.09,0,.15.09.12.39-.06.54-.06,2.39-.06,4.43s0,4,.06,4.51.39.7.78.78.42.11.42.22-.22.2-.45.2-1.34-.11-1.93-.11c-.78,0-1.18.05-1.48.05s-.34-.05-.34-.16.11-.17.53-.26.87-.33.9-1.54c0-.84.08-6,.08-6.32s0-.51-.87-.9c-.13,0-.19-.14-.19-.2S188.59,12.16,188.79,12.1Zm2.57-4.62a.93.93,0,0,1-.89.92.86.86,0,0,1-.81-.89.92.92,0,0,1,.87-1A.87.87,0,0,1,191.36,7.48Z"/><path class="cls-2" d="M191.81,21.89l-.48,0c-.43,0-1.07-.08-1.45-.08s-.8,0-1.06,0l-.42,0c-.28,0-.46-.12-.46-.29s.25-.3.63-.38.77-.25.79-1.42c0-.85.09-6.09.09-6.32s0-.4-.8-.79a.37.37,0,0,1-.27-.31c0-.08.05-.25.37-.34a12.19,12.19,0,0,0,1.69-.66,1.18,1.18,0,0,1,.5-.21.21.21,0,0,1,.17.07.63.63,0,0,1,.07.46c-.05.52-.05,2.41-.05,4.41s0,4,.05,4.49.32.6.69.68c.2,0,.52.1.52.34S192.17,21.89,191.81,21.89Zm-1.93-.37c.39,0,1,.05,1.47.09l.46,0a.48.48,0,0,0,.33-.08,1,1,0,0,0-.32-.1c-.39-.08-.82-.17-.89-.89-.05-.48-.05-2.44-.05-4.52s0-3.9.05-4.44a.5.5,0,0,0,0-.26s-.1,0-.36.19a12.92,12.92,0,0,1-1.74.68h0a.43.43,0,0,0-.19.1.28.28,0,0,0,.12.08c.82.4.95.62.95,1,0,.23-.06,5.48-.09,6.33,0,1.21-.33,1.49-1,1.66a1,1,0,0,0-.44.14,2.18,2.18,0,0,0,.22,0l.4,0C189.05,21.55,189.4,21.52,189.88,21.52Zm.59-13a1,1,0,0,1-.94-1,1.05,1.05,0,0,1,1-1.08,1,1,0,0,1,1,1.05A1.06,1.06,0,0,1,190.47,8.53Zm.06-1.85a.81.81,0,0,0-.75.83.74.74,0,0,0,.69.77.81.81,0,0,0,.77-.8A.75.75,0,0,0,190.53,6.68Z"/><path class="cls-2" d="M197,11.57c.31,0,.45,0,.45.17s-.17.19-.42.25c-.76.2-.84.33-.56,1.29s2,5.54,2.38,6.21c0,.09.08.12.11.06.42-.76,2.13-4.85,2.49-5.82a4.27,4.27,0,0,0,.34-1.18c0-.17-.2-.48-.95-.65-.2-.05-.31-.11-.31-.22s.11-.11.31-.11c.36,0,.73.08,1.31.08s1.18-.05,1.43-.05.39,0,.39.14-.16.16-.42.25c-.59.17-.84.5-1.14,1.2l-2.33,5a35.44,35.44,0,0,0-1.43,3.33c-.14.42-.22.48-.28.48s-.19-.06-.3-.45-.34-1.06-.73-2.12c-.48-1.29-2.13-5.72-2.55-6.53a1.66,1.66,0,0,0-1.29-1c-.25-.06-.39-.14-.39-.19s.14-.2.45-.2c.78,0,1,.08,1.93.08C196.18,11.65,196.54,11.57,197,11.57Z"/><path class="cls-2" d="M198.33,22.17c-.24,0-.35-.29-.42-.54s-.11-.3-.17-.51c-.13-.38-.3-.92-.56-1.61-.08-.23-2.08-5.61-2.54-6.51a1.55,1.55,0,0,0-1.21-.92c-.22-.05-.49-.14-.49-.31s.06-.33.58-.33.62,0,.87,0,.56,0,1.06,0,.7,0,1,0a5.46,5.46,0,0,1,.56,0c.16,0,.57,0,.57.3s-.39.34-.51.37c-.31.08-.51.15-.58.27s0,.43.11.86c.23.77,1.91,5.2,2.33,6.11.51-1,2.06-4.7,2.42-5.67,0-.13.09-.25.13-.37a2.34,2.34,0,0,0,.19-.76c0-.12-.18-.37-.85-.52-.15,0-.41-.12-.41-.35s.32-.24.44-.24a4.75,4.75,0,0,1,.51,0c.23,0,.48,0,.8,0s.6,0,.9,0l.53,0c.13,0,.52,0,.52.27s-.21.27-.51.37c-.56.16-.78.48-1.07,1.13L201,16.53l-.82,1.76c-.11.26-.24.52-.36.78a24,24,0,0,0-1.06,2.53C198.6,22,198.49,22.17,198.33,22.17Zm-5.11-10.42a1.14,1.14,0,0,0,.27.09,1.78,1.78,0,0,1,1.37,1c.47.92,2.47,6.31,2.55,6.54.26.7.44,1.24.56,1.63.07.2.13.37.17.5s.15.36.19.37,0-.06.17-.39A20.92,20.92,0,0,1,199.57,19l.36-.78.81-1.76,1.51-3.28c.31-.7.58-1.09,1.23-1.27a2,2,0,0,0,.31-.12.89.89,0,0,0-.25,0l-.52,0c-.3,0-.65,0-.91,0s-.59,0-.83,0a4.23,4.23,0,0,0-.48,0,.54.54,0,0,0-.17,0,1.24,1.24,0,0,0,.2.07c.77.17,1,.51,1,.77a2.51,2.51,0,0,1-.21.85l-.13.36c-.38,1-2.09,5.11-2.5,5.85a.14.14,0,0,1-.16.09.21.21,0,0,1-.18-.17c-.35-.69-2.13-5.39-2.38-6.22-.16-.52-.21-.83-.08-1.05s.34-.29.73-.39.32-.13.32-.14h0a.76.76,0,0,0-.32,0,5.11,5.11,0,0,0-.53,0c-.27,0-.56,0-1,0s-.8,0-1.08,0-.48,0-.85,0A.48.48,0,0,0,193.22,11.75Zm5.59,7.74Z"/><path class="cls-2" d="M212.63,14.12a.3.3,0,0,1-.25.25c-.2,0-3.92-.09-4.51-.09h-1.71s-.22.17-.28.26a3.57,3.57,0,0,0-.25,1.68A5.08,5.08,0,0,0,207,19.63a3.83,3.83,0,0,0,2.94,1.21,3.61,3.61,0,0,0,2.68-.93c.26-.22.34-.17.34-.05a.94.94,0,0,1-.31.47A4.82,4.82,0,0,1,208.79,22a4.4,4.4,0,0,1-3.24-1.43,5.38,5.38,0,0,1-1.35-3.75,6,6,0,0,1,1.51-4,5.28,5.28,0,0,1,3.53-1.45C210.73,11.32,212.63,12.35,212.63,14.12Zm-5.88-1.32a2.11,2.11,0,0,0-.56,1,.13.13,0,0,0,.09.11l4.05,0c.56,0,.62-.25.62-.5a1.69,1.69,0,0,0-.39-1.12,2.32,2.32,0,0,0-1.57-.56A3.39,3.39,0,0,0,206.75,12.8Z"/><path class="cls-2" d="M208.79,22.08a4.51,4.51,0,0,1-3.33-1.47,5.42,5.42,0,0,1-1.38-3.83,6.15,6.15,0,0,1,1.54-4.09,5.4,5.4,0,0,1,3.62-1.5c1.47,0,3.52,1,3.52,2.93a.42.42,0,0,1-.38.37l-1.31,0-3.2-.06h-1.71a1.39,1.39,0,0,0-.17.2,3.47,3.47,0,0,0-.23,1.61A5,5,0,0,0,207,19.55a3.75,3.75,0,0,0,2.85,1.16,3.53,3.53,0,0,0,2.6-.89c.13-.11.28-.23.43-.17a.23.23,0,0,1,.11.21,1.07,1.07,0,0,1-.34.56A5,5,0,0,1,208.79,22.08Zm.45-10.64a5.15,5.15,0,0,0-3.44,1.42,5.87,5.87,0,0,0-1.47,3.92,5.21,5.21,0,0,0,1.31,3.66,4.28,4.28,0,0,0,3.15,1.39,4.71,4.71,0,0,0,3.73-1.59,1.31,1.31,0,0,0,.24-.32l-.1.09a3.76,3.76,0,0,1-2.77.95,4,4,0,0,1-3-1.24,5.24,5.24,0,0,1-1.34-3.5,3.87,3.87,0,0,1,.26-1.74s.23-.32.39-.32h1.71l3.21.06,1.3,0s.13-.08.13-.12C212.51,12.39,210.58,11.44,209.24,11.44Zm-3,2.61a.24.24,0,0,1-.21-.24,2.14,2.14,0,0,1,.59-1.09h0A3.49,3.49,0,0,1,209,11.58a2.42,2.42,0,0,1,1.65.6,1.82,1.82,0,0,1,.44,1.21c0,.29-.09.63-.75.63Zm0-.24Zm.52-.92a2.18,2.18,0,0,0-.52.91l4,0c.5,0,.5-.19.5-.38a1.55,1.55,0,0,0-.36-1,2.17,2.17,0,0,0-1.48-.53A3.24,3.24,0,0,0,206.84,12.89Z"/><path class="cls-2" d="M217.33,13.28a1.76,1.76,0,0,0-.56,1.12c0,.25,0,.92,0,1.51,0,2.1,0,3.67.11,4.23.11.89.51,1.09,1.6,1.17.39.06.53.12.53.25s-.25.2-.7.2-1.51-.11-2.63-.11a13.13,13.13,0,0,0-1.46.17c-.31,0-.42,0-.42-.14s.2-.23.39-.28a1.2,1.2,0,0,0,1-1.15c.06-.48.08-2.07.08-3.92V13.11c0-.22-.25-.31-.72-.7-.2-.14-.23-.22-.23-.28s.17-.17.48-.25a8.66,8.66,0,0,0,1.4-.56.77.77,0,0,1,.39-.14c.06,0,.11.08.11.42s0,1.42,0,1.79c0,0,.06.08.14,0,.82-1,2-2,3.08-2a1.58,1.58,0,0,1,1,.39.48.48,0,0,1,.11.34,1.37,1.37,0,0,1-.5.76c-.25.22-.34.22-.42.22a1.37,1.37,0,0,1-.5-.2,2,2,0,0,0-.93-.28A2.12,2.12,0,0,0,217.33,13.28Z"/><path class="cls-2" d="M214.19,21.94c-.23,0-.54,0-.54-.26s.28-.35.48-.4a1.08,1.08,0,0,0,.94-1.05c.06-.43.09-1.89.09-3.9V13.11c0-.09-.08-.15-.3-.31s-.23-.17-.38-.3-.27-.24-.27-.37.35-.32.57-.37a7.46,7.46,0,0,0,1.36-.55,1,1,0,0,1,.46-.16c.24,0,.24.37.24.55s0,.38,0,.71,0,.66,0,.9c.8-.91,1.95-1.93,3.09-1.93a1.68,1.68,0,0,1,1.09.42.64.64,0,0,1,.16.43,1.46,1.46,0,0,1-.55.85c-.26.24-.37.25-.5.25a1.33,1.33,0,0,1-.56-.21,1.85,1.85,0,0,0-.87-.26,2,2,0,0,0-1.25.61,1.74,1.74,0,0,0-.53,1c0,.25,0,.91,0,1.5,0,2.14.06,3.69.12,4.21.09.78.37,1,1.48,1.07.3,0,.65.09.65.37s-.42.33-.83.33l-.74,0c-.51,0-1.2-.08-1.89-.08a6,6,0,0,0-1,.11A1.91,1.91,0,0,1,214.19,21.94Zm-.28-.27a1.46,1.46,0,0,0,.66,0,5.4,5.4,0,0,1,1.08-.12c.7,0,1.39.05,1.9.08l.73,0c.5,0,.57-.08.58-.09s-.15-.07-.43-.11c-1.07-.09-1.58-.29-1.7-1.29-.06-.55-.12-2.08-.12-4.24,0-.6,0-1.27,0-1.53a2,2,0,0,1,.6-1.19h0a2.25,2.25,0,0,1,1.43-.68,2,2,0,0,1,1,.29,1.43,1.43,0,0,0,.45.18c.06,0,.12,0,.34-.19a1.35,1.35,0,0,0,.46-.66.36.36,0,0,0-.08-.25,1.4,1.4,0,0,0-.92-.35c-1.09,0-2.22,1.05-3,1.94-.12.12-.22.1-.26.08a.17.17,0,0,1-.1-.16c0-.21,0-.67,0-1.09s0-.6,0-.7a1,1,0,0,0,0-.29.83.83,0,0,0-.29.12,8.5,8.5,0,0,1-1.43.57,1.19,1.19,0,0,0-.37.15s.06.09.16.16l.38.29c.24.17.4.29.4.51v3.22c0,2,0,3.49-.09,3.93a1.34,1.34,0,0,1-1.13,1.26A.8.8,0,0,0,213.91,21.67Z"/><path class="cls-2" d="M118.34,25.32a9.43,9.43,0,0,0,.78,2.16c2.16,5.2,3.33,7.71,5.21,11.65.73,1.56,1,1.78,1.71,1.94.31,0,.48.15.48.22s-.26.18-.51.18c-.45,0-.75-.08-2.27-.08-.75,0-1.93.1-2.52.1-.28,0-.44-.07-.44-.17s.27-.2.53-.23c1.26-.15,1.29-.65,1.29-1.13,0-.3-1-2.62-2-5.07-.08-.15-.25-.3-.34-.3-1,.08-4.87,0-5.48.08-.09,0-.31.32-.39.5A34.34,34.34,0,0,0,112.8,39c-.34,1-.31,1.49,0,1.76a2.43,2.43,0,0,0,1.14.41c.28.05.42.15.42.22s-.25.18-.53.18c-.53,0-1.74-.13-2.77-.13-.7,0-1.18.13-1.76.13-.31,0-.48-.05-.48-.18s.28-.17.56-.22c1.29-.23,1.46-.41,2.55-2.55.75-1.43,3.27-7,5-10.94a1.61,1.61,0,0,0,.17-.73.51.51,0,0,1,.08-.27,2.52,2.52,0,0,0,.78-1.26c0-.1.06-.26.17-.26S118.28,25.16,118.34,25.32Zm1.6,8.24c-1.26-3.18-1.94-4.51-2.41-5.55-.09-.17-.14-.1-.23.08-.78,1.71-1.9,4.51-2.29,5.57,0,0-.06.22.08.22.45,0,1.18,0,2.24,0a17.91,17.91,0,0,0,2.61-.1S120,33.66,119.94,33.56Z"/><path class="cls-2" d="M113.83,41.65c-.23,0-.57,0-1,0-.54,0-1.21-.08-1.81-.08a6.71,6.71,0,0,0-1,.07,7.18,7.18,0,0,1-.81.06c-.17,0-.61,0-.61-.31s.31-.28.66-.35c1.25-.21,1.38-.35,2.47-2.47.79-1.52,3.64-7.88,5-10.94a1.43,1.43,0,0,0,.16-.68.63.63,0,0,1,.13-.37l0-.05a2.28,2.28,0,0,0,.69-1.13V25.3c0-.11.09-.31.28-.31s.27.15.32.28v0a9.85,9.85,0,0,0,.77,2.13c2.11,5.07,3.26,7.55,5.21,11.64.72,1.54,1,1.73,1.62,1.87.17,0,.58.12.58.35s-.22.3-.63.3l-.49,0c-.34,0-.8,0-1.78,0-.4,0-.91,0-1.4,0s-.84,0-1.12,0-.57-.11-.57-.3.62-.35.64-.35c1.18-.14,1.18-.59,1.18-1,0-.24-.82-2.15-1.6-4l-.43-1a.81.81,0,0,0-.23-.23c-.65,0-2.41.06-3.83.07h-1.65a2.44,2.44,0,0,0-.28.43A38.71,38.71,0,0,0,112.91,39c-.34,1.07-.26,1.42,0,1.63A2.27,2.27,0,0,0,114,41c.32.06.52.19.52.35S114.37,41.65,113.83,41.65Zm-2.77-.38c.61,0,1.28,0,1.82.08s.73,0,1,0a1.08,1.08,0,0,0,.39-.06.91.91,0,0,0-.3-.1,2.61,2.61,0,0,1-1.21-.43c-.37-.33-.38-.85,0-1.9a38.82,38.82,0,0,1,1.54-3.8s.29-.57.51-.57h1.65c1.34,0,3.17,0,3.83-.06h0c.17,0,.37.21.45.36l.44,1a33,33,0,0,1,1.62,4.1c0,.57-.11,1.1-1.4,1.26a1,1,0,0,0-.4.11,1,1,0,0,0,.3,0c.27,0,.68,0,1.11,0s1,0,1.41,0c1,0,1.46,0,1.8,0a3.94,3.94,0,0,0,.47,0,1.11,1.11,0,0,0,.35,0,1,1,0,0,0-.34-.11c-.82-.17-1.08-.47-1.8-2-2-4.1-3.11-6.58-5.21-11.65a9.46,9.46,0,0,1-.79-2.18c0-.11-.07-.11-.08-.11a1,1,0,0,0,0,.12l0,0a2.49,2.49,0,0,1-.75,1.26l-.06.05a.64.64,0,0,0,0,.19,1.75,1.75,0,0,1-.18.78c-2.19,4.9-4.31,9.62-5,11-1.11,2.18-1.31,2.38-2.64,2.61a1.77,1.77,0,0,0-.46.12,1.26,1.26,0,0,0,.36,0,6.65,6.65,0,0,0,.78-.06A7.16,7.16,0,0,1,111.06,41.27ZM117.33,34c-1.08,0-1.8,0-2.25,0h0a.21.21,0,0,1-.18-.11.37.37,0,0,1,0-.16.21.21,0,0,1,0-.15c.39-1,1.5-3.82,2.29-5.55,0-.12.12-.25.25-.25s.18.12.2.17l.25.54c.47,1,1.11,2.35,2.16,5h0a.59.59,0,0,1,0,.23.08.08,0,0,0,0,0H120l0,.14A16.13,16.13,0,0,1,117.33,34Zm-2.22-.29v0h2.22c.83,0,2,0,2.48-.07a.49.49,0,0,0,0-.11c-1-2.65-1.69-4-2.15-5-.09-.18-.16-.35-.24-.5l0,0c-.79,1.75-1.91,4.55-2.29,5.56Z"/><path class="cls-2" d="M129.52,33.2a2.79,2.79,0,0,0,1.66,2.24c1.84,1.18,2.57,1.88,2.57,3.3a2.75,2.75,0,0,1-1.51,2.33,4.07,4.07,0,0,1-2.05.56,5.16,5.16,0,0,1-2.12-.51.52.52,0,0,1-.37-.42c0-.39,0-1-.08-1.34s0-.42.08-.42.14,0,.34.53a2.68,2.68,0,0,0,1.17,1.43,2.43,2.43,0,0,0,1.21.34,2.07,2.07,0,0,0,1.9-2c0-1.15-.78-1.74-1.79-2.38s-2.32-1.62-2.32-3a2.69,2.69,0,0,1,.89-2.07,3.58,3.58,0,0,1,2.35-.84,6.26,6.26,0,0,1,1.8.31.44.44,0,0,1,.14.22c0,.31.14.9.16,1.23s-.05.45-.14.45-.14-.14-.22-.33a2.22,2.22,0,0,0-.67-1.07,2.3,2.3,0,0,0-1.26-.39A1.67,1.67,0,0,0,129.52,33.2Z"/><path class="cls-2" d="M130.19,41.75a5.32,5.32,0,0,1-2.17-.51.65.65,0,0,1-.44-.54c0-.33,0-.84-.07-1.18l0-.15c0-.24,0-.4.06-.48a.19.19,0,0,1,.15-.08c.16,0,.26.1.46.62a2.51,2.51,0,0,0,1.12,1.36,2.31,2.31,0,0,0,1.14.32,2,2,0,0,0,1.78-1.89c0-1.08-.76-1.65-1.74-2.28s-2.38-1.69-2.38-3.07a2.77,2.77,0,0,1,.94-2.16,3.69,3.69,0,0,1,2.43-.88,6.38,6.38,0,0,1,1.84.32.48.48,0,0,1,.22.34c0,.14.05.35.08.57s.07.48.09.65,0,.59-.27.59-.23-.16-.29-.31l-.09-.21a1.87,1.87,0,0,0-.59-.91,2.14,2.14,0,0,0-1.18-.37,1.55,1.55,0,0,0-1.61,1.7,2.62,2.62,0,0,0,1.59,2.13c1.86,1.19,2.64,1.92,2.64,3.41a2.86,2.86,0,0,1-1.58,2.44A4.22,4.22,0,0,1,130.19,41.75Zm-2.46-2.66a.74.74,0,0,0,0,.25l0,.16c0,.34.07.86.07,1.2a.43.43,0,0,0,.28.31,5.12,5.12,0,0,0,2.08.49,3.9,3.9,0,0,0,2-.54,2.61,2.61,0,0,0,1.46-2.22c0-1.35-.66-2-2.52-3.19a3,3,0,0,1-1.71-2.35,1.81,1.81,0,0,1,1.86-2,2.34,2.34,0,0,1,1.33.42,2.22,2.22,0,0,1,.68,1l0,.1a1.17,1.17,0,0,1,0,.11l.05.12a1.35,1.35,0,0,0,0-.3c0-.16-.05-.39-.09-.62l-.08-.6a.24.24,0,0,0-.07-.12,6,6,0,0,0-1.74-.3,3.46,3.46,0,0,0-2.27.82,2.55,2.55,0,0,0-.85,2c0,1.26,1.21,2.19,2.27,2.86s1.85,1.28,1.85,2.49a2.2,2.2,0,0,1-2,2.14,2.58,2.58,0,0,1-1.27-.35,2.81,2.81,0,0,1-1.23-1.5A2.72,2.72,0,0,0,127.73,39.09Z"/><path class="cls-2" d="M137.64,33.2a2.81,2.81,0,0,0,1.65,2.24c1.85,1.18,2.58,1.88,2.58,3.3a2.75,2.75,0,0,1-1.51,2.33,4.07,4.07,0,0,1-2.05.56,5.17,5.17,0,0,1-2.13-.51.53.53,0,0,1-.36-.42c0-.39-.06-1-.09-1.34s0-.42.09-.42.14,0,.33.53a2.73,2.73,0,0,0,1.18,1.43,2.42,2.42,0,0,0,1.2.34,2.07,2.07,0,0,0,1.91-2c0-1.15-.79-1.74-1.79-2.38s-2.33-1.62-2.33-3a2.66,2.66,0,0,1,.9-2.07,3.56,3.56,0,0,1,2.35-.84,6.18,6.18,0,0,1,1.79.31.38.38,0,0,1,.14.22c0,.31.14.9.17,1.23s-.06.45-.14.45-.14-.14-.22-.33a2.16,2.16,0,0,0-.68-1.07,2.24,2.24,0,0,0-1.26-.39A1.66,1.66,0,0,0,137.64,33.2Z"/><path class="cls-2" d="M138.31,41.75a5.29,5.29,0,0,1-2.17-.51.66.66,0,0,1-.45-.54c0-.37-.05-1-.08-1.3s0-.43.06-.51a.18.18,0,0,1,.15-.08c.15,0,.26.1.45.62a2.49,2.49,0,0,0,1.13,1.36,2.21,2.21,0,0,0,1.13.32,1.94,1.94,0,0,0,1.78-1.89c0-1.08-.75-1.65-1.73-2.28s-2.38-1.69-2.38-3.07a2.77,2.77,0,0,1,.94-2.16,3.69,3.69,0,0,1,2.43-.88,6.24,6.24,0,0,1,1.83.32.46.46,0,0,1,.23.34c0,.14,0,.35.08.57s.07.48.09.65,0,.59-.27.59-.24-.16-.3-.31l-.08-.2a1.86,1.86,0,0,0-.59-.92,2.18,2.18,0,0,0-1.19-.37,1.56,1.56,0,0,0-1.61,1.7,2.64,2.64,0,0,0,1.59,2.13c1.87,1.19,2.64,1.92,2.64,3.41a2.86,2.86,0,0,1-1.57,2.44A4.22,4.22,0,0,1,138.31,41.75Zm-2.47-2.65a1.43,1.43,0,0,0,0,.24v0c0,.35.08.94.08,1.32a.42.42,0,0,0,.29.31,5.12,5.12,0,0,0,2.08.49,3.9,3.9,0,0,0,2-.54,2.62,2.62,0,0,0,1.45-2.22c0-1.35-.66-2-2.52-3.19a3,3,0,0,1-1.71-2.35,1.81,1.81,0,0,1,1.86-2,2.37,2.37,0,0,1,1.34.42,2.19,2.19,0,0,1,.68,1l.08.19a.69.69,0,0,0,.05.13,1.35,1.35,0,0,0,0-.3c0-.16-.05-.39-.09-.62s-.07-.45-.08-.6,0-.11-.08-.12a5.89,5.89,0,0,0-1.73-.3,3.44,3.44,0,0,0-2.27.82,2.52,2.52,0,0,0-.85,2c0,1.26,1.21,2.19,2.26,2.86s1.85,1.28,1.85,2.49a2.2,2.2,0,0,1-2,2.14,2.55,2.55,0,0,1-1.26-.35,2.76,2.76,0,0,1-1.23-1.5A1.42,1.42,0,0,0,135.84,39.1Z"/><path class="cls-2" d="M154.2,36.25A5.59,5.59,0,0,1,152,40.56,5.49,5.49,0,0,1,149,41.63a5.32,5.32,0,0,1-3.3-9.52A5.56,5.56,0,0,1,148.9,31,5.24,5.24,0,0,1,154.2,36.25Zm-9-.31a6,6,0,0,0,1.31,3.76,3.73,3.73,0,0,0,2.83,1.45,3.13,3.13,0,0,0,2-.75,5.22,5.22,0,0,0,1.26-3.73c0-2.43-1.51-5.23-4.2-5.23C146.89,31.44,145.21,32.86,145.21,35.94Z"/><path class="cls-2" d="M149,41.75a5.43,5.43,0,0,1-5.47-5.25A5.54,5.54,0,0,1,145.58,32a5.68,5.68,0,0,1,3.32-1.18,5.36,5.36,0,0,1,5.42,5.42,5.74,5.74,0,0,1-2.2,4.41A5.63,5.63,0,0,1,149,41.75Zm-.06-10.67a5.42,5.42,0,0,0-3.17,1.13A5.2,5.2,0,0,0,149,41.5a5.33,5.33,0,0,0,3-1,5.49,5.49,0,0,0,2.11-4.21A5.11,5.11,0,0,0,148.9,31.08Zm.45,10.2a3.83,3.83,0,0,1-2.92-1.51,6.08,6.08,0,0,1-1.35-3.83c0-3,1.67-4.63,3.32-4.63,2.71,0,4.33,2.73,4.33,5.36a5.35,5.35,0,0,1-1.31,3.82A3.31,3.31,0,0,1,149.35,41.28Zm-.95-9.72c-1.52,0-3.07,1.51-3.07,4.38a5.91,5.91,0,0,0,1.29,3.68A3.64,3.64,0,0,0,149.35,41a3.07,3.07,0,0,0,1.91-.73,5.11,5.11,0,0,0,1.22-3.63C152.48,34.21,150.92,31.56,148.4,31.56Z"/><path class="cls-2" d="M157.49,35.83A4.59,4.59,0,0,0,159,39.56a4.22,4.22,0,0,0,2.69,1,3.71,3.71,0,0,0,3-1.12s.17-.06.17,0a.58.58,0,0,1-.2.42,5,5,0,0,1-3.83,1.74,4.92,4.92,0,0,1-3.39-1.34A5.22,5.22,0,0,1,156,36.5a5.44,5.44,0,0,1,1.62-3.89A5.77,5.77,0,0,1,161.72,31a4.51,4.51,0,0,1,2.49.67c.36.2.42.42.42.56A1,1,0,0,1,164,33a.85.85,0,0,1-.45-.28A6.06,6.06,0,0,0,162,31.63a2.5,2.5,0,0,0-1.07-.22C159.62,31.41,157.49,32.61,157.49,35.83Z"/><path class="cls-2" d="M160.77,41.72a5,5,0,0,1-3.48-1.37,5.36,5.36,0,0,1-1.46-3.85,5.56,5.56,0,0,1,1.66-4,5.88,5.88,0,0,1,4.23-1.69,4.65,4.65,0,0,1,2.56.7.77.77,0,0,1,.48.66,1.06,1.06,0,0,1-.77.91.88.88,0,0,1-.54-.32,5.74,5.74,0,0,0-1.48-1,2.54,2.54,0,0,0-1-.21c-1.29,0-3.35,1.17-3.35,4.3a4.45,4.45,0,0,0,1.44,3.63,4.1,4.1,0,0,0,2.61.95,3.6,3.6,0,0,0,2.89-1.09.29.29,0,0,1,.26,0,.17.17,0,0,1,.11.16.73.73,0,0,1-.22.5A5.15,5.15,0,0,1,160.77,41.72Zm.95-10.64a5.7,5.7,0,0,0-4.06,1.62,5.28,5.28,0,0,0-1.58,3.8,5.07,5.07,0,0,0,1.39,3.67,4.75,4.75,0,0,0,3.3,1.3,4.93,4.93,0,0,0,3.74-1.69.71.71,0,0,0,.13-.19,3.84,3.84,0,0,1-3,1.07,4.3,4.3,0,0,1-2.77-1,4.67,4.67,0,0,1-1.53-3.82c0-3.31,2.21-4.55,3.6-4.55a2.66,2.66,0,0,1,1.12.24,5.8,5.8,0,0,1,1.55,1.09.72.72,0,0,0,.36.24c.07,0,.52-.3.52-.66q0-.25-.36-.45A4.4,4.4,0,0,0,161.72,31.08Z"/><path class="cls-2" d="M167.12,31.74a11.74,11.74,0,0,0,1.71-.67,1.35,1.35,0,0,1,.44-.19c.09,0,.14.08.12.39-.06.53-.06,2.38-.06,4.42s0,4,.06,4.51.39.7.78.78.42.12.42.23-.22.19-.45.19-1.34-.11-1.93-.11c-.78,0-1.18.06-1.48.06s-.34-.06-.34-.17.11-.17.53-.25.87-.34.9-1.54c0-.84.08-6,.08-6.33s-.05-.5-.87-.9c-.14,0-.19-.14-.19-.19S166.92,31.8,167.12,31.74Zm2.57-4.62a.93.93,0,0,1-.89.93.88.88,0,0,1-.82-.9.93.93,0,0,1,.87-.95A.87.87,0,0,1,169.69,27.12Z"/><path class="cls-2" d="M170.14,41.53l-.48,0c-.43,0-1.07-.08-1.45-.08s-.8,0-1.06,0l-.42,0c-.28,0-.47-.12-.47-.29s.26-.3.64-.38.77-.25.79-1.42c0-.82.09-6,.09-6.32s0-.4-.8-.78c-.19-.08-.27-.21-.27-.31s0-.25.37-.35a12.19,12.19,0,0,0,1.69-.66c.33-.19.44-.21.5-.21a.22.22,0,0,1,.17.07.63.63,0,0,1,.07.46c0,.53,0,2.41,0,4.41s0,4,0,4.5.32.59.69.67c.2,0,.52.11.52.35S170.5,41.53,170.14,41.53Zm-1.93-.36c.39,0,1,0,1.47.08l.46,0c.22,0,.32-.05.33-.07s-.06-.05-.32-.1-.82-.18-.89-.9c0-.48,0-2.44,0-4.52s0-3.9,0-4.44a.5.5,0,0,0,0-.26,3.48,3.48,0,0,1-.36.19,13.47,13.47,0,0,1-1.74.68h0c-.15.05-.19.1-.19.11a.5.5,0,0,0,.12.08c.82.39.95.62.95,1,0,.23-.06,5.46-.09,6.33,0,1.21-.34,1.5-1,1.66-.38.08-.43.14-.44.15s.09,0,.22,0l.4,0C167.39,41.19,167.72,41.17,168.21,41.17Zm.59-13a1,1,0,0,1-.94-1,1.05,1.05,0,0,1,1-1.08,1,1,0,0,1,1,1.05A1.06,1.06,0,0,1,168.8,28.17Zm0-1.85a.81.81,0,0,0-.74.83.74.74,0,0,0,.69.77.81.81,0,0,0,.77-.8A.76.76,0,0,0,168.85,26.32Z"/><path class="cls-2" d="M179,32.5a11.15,11.15,0,0,1,.25,2.46c0,.9-.11,3.7-.11,4.43a1,1,0,0,0,1.09,1.12,1.89,1.89,0,0,0,.84-.25c.17-.09.28-.06.17.22a2.17,2.17,0,0,1-2,1.12,1.82,1.82,0,0,1-1.57-1.26.09.09,0,0,0-.14,0,4.1,4.1,0,0,1-2.77,1.26,2.26,2.26,0,0,1-2.21-2.35,1.86,1.86,0,0,1,1-1.54c.65-.36,3.28-1.2,3.79-1.37a.69.69,0,0,0,.39-.42c0-.34.05-.81.05-1.29,0-1.15-.19-2-.7-2.41a2.3,2.3,0,0,0-1.2-.45,1.87,1.87,0,0,0-1.18.4,1.32,1.32,0,0,0-.5.75,1.72,1.72,0,0,0,0,.42.34.34,0,0,1-.11.23,5.71,5.71,0,0,1-1.15.5.27.27,0,0,1-.22-.25c0-.14.11-.31.42-.7a7.53,7.53,0,0,1,2.12-1.65,3.49,3.49,0,0,1,1.6-.48A2.25,2.25,0,0,1,179,32.5Zm-1.74,7.62a1.43,1.43,0,0,0,.37-.73,20.58,20.58,0,0,0,.14-2.61s-.06-.16-.11-.14a20.2,20.2,0,0,0-2.92,1.07,1.47,1.47,0,0,0-.64,1.37,1.64,1.64,0,0,0,1.76,1.51A2.13,2.13,0,0,0,177.25,40.12Z"/><path class="cls-2" d="M179.27,41.72a1.91,1.91,0,0,1-1.66-1.28,4.2,4.2,0,0,1-2.82,1.26,2.39,2.39,0,0,1-2.34-2.48,2,2,0,0,1,1.08-1.65,34.66,34.66,0,0,1,3.52-1.29l.28-.09a.52.52,0,0,0,.3-.32c0-.19.06-.7.06-1.27,0-1.2-.23-2-.65-2.31a2.2,2.2,0,0,0-1.13-.42,1.72,1.72,0,0,0-1.11.37,1.26,1.26,0,0,0-.45.68,2.18,2.18,0,0,0,0,.39.47.47,0,0,1-.15.31,5,5,0,0,1-1.24.54.39.39,0,0,1-.35-.37c0-.18.11-.35.45-.78a7.87,7.87,0,0,1,2.17-1.69,3.61,3.61,0,0,1,1.65-.49,2.39,2.39,0,0,1,2.25,1.63h0a11.11,11.11,0,0,1,.26,2.5c0,.48,0,1.47-.06,2.42s-.06,1.66-.06,2a.87.87,0,0,0,1,1,1.75,1.75,0,0,0,.78-.23c.15-.08.26-.08.33,0s.06.27,0,.39A2.31,2.31,0,0,1,179.27,41.72Zm-1.66-1.55h0a.21.21,0,0,1,.16.11,1.7,1.7,0,0,0,1.46,1.19,2.06,2.06,0,0,0,1.85-1,.64.64,0,0,1,0-.07h0a2,2,0,0,1-.9.26A1.11,1.11,0,0,1,179,39.39c0-.35,0-1.16.06-2s.06-2,.06-2.42a11.07,11.07,0,0,0-.25-2.42,2.12,2.12,0,0,0-2-1.46,3.33,3.33,0,0,0-1.54.47,7.33,7.33,0,0,0-2.09,1.62c-.25.33-.39.51-.39.62a.16.16,0,0,0,.1.12,5.47,5.47,0,0,0,1.08-.48.2.2,0,0,0,.06-.12,2.08,2.08,0,0,1,0-.45,1.45,1.45,0,0,1,.54-.82,2,2,0,0,1,1.26-.42,2.4,2.4,0,0,1,1.28.47c.5.36.75,1.2.75,2.51,0,.58,0,1.1-.06,1.3a.78.78,0,0,1-.48.53l-.27.09a34.44,34.44,0,0,0-3.48,1.27,1.75,1.75,0,0,0-1,1.43,2.14,2.14,0,0,0,2.09,2.23,4,4,0,0,0,2.69-1.23A.19.19,0,0,1,177.61,40.17Zm0,.23h0Zm-1.8.32A1.76,1.76,0,0,1,174,39.08a1.58,1.58,0,0,1,.71-1.48,21.1,21.1,0,0,1,2.94-1.08.17.17,0,0,1,.14,0,.36.36,0,0,1,.13.24,20.11,20.11,0,0,1-.14,2.63,1.4,1.4,0,0,1-.4.79h0A2.24,2.24,0,0,1,175.85,40.72Zm1.77-3.95a21.47,21.47,0,0,0-2.83,1,1.34,1.34,0,0,0-.58,1.26,1.51,1.51,0,0,0,1.64,1.39,2.05,2.05,0,0,0,1.32-.44,1.32,1.32,0,0,0,.32-.66,19.41,19.41,0,0,0,.14-2.59h0Z"/><path class="cls-2" d="M183.43,40.26a3,3,0,0,1-.33-1.54V32.89c0-.36,0-.56-.11-.59a6.62,6.62,0,0,0-.79-.19c-.19,0-.33-.14-.33-.23s0-.08.28-.22a5.14,5.14,0,0,0,2.15-1.82c.17-.25.39-.2.39-.08a10.55,10.55,0,0,0-.05,1.31c0,.09,0,.23.14.23.5,0,3-.09,3.64-.09.05,0,.17.17.17.34,0,.39-.14.7-.28.7l-3.36,0c-.37,0-.4.08-.4.25,0,.42,0,4.79.09,5.71s.11,1.32.31,1.6a2.09,2.09,0,0,0,1.87.81,2.94,2.94,0,0,0,1.65-.45c.17-.14.26-.11.26,0s-.31.48-.65.73a3.78,3.78,0,0,1-2.15.67A2.57,2.57,0,0,1,183.43,40.26Z"/><path class="cls-2" d="M185.93,41.67a2.65,2.65,0,0,1-2.6-1.35,3,3,0,0,1-.36-1.6V32.89a1.35,1.35,0,0,0,0-.48,7.69,7.69,0,0,0-.75-.18c-.24,0-.44-.19-.44-.35s.08-.21.36-.33a5.17,5.17,0,0,0,2.1-1.78.4.4,0,0,1,.45-.22.22.22,0,0,1,.17.21,11.11,11.11,0,0,0-.06,1.3c0,.06,0,.11,0,.11l1.61,0,2,0c.15,0,.29.25.29.46,0,.4-.14.82-.4.82h-1.93l-1.43,0c-.27,0-.27,0-.27.13,0,.41,0,4.79.08,5.71s.11,1.28.29,1.53a2,2,0,0,0,1.77.76,2.88,2.88,0,0,0,1.59-.43s.19-.17.33-.1a.22.22,0,0,1,.11.2c0,.28-.48.67-.69.83A3.88,3.88,0,0,1,185.93,41.67ZM182,31.88a.32.32,0,0,0,.22.1,6.31,6.31,0,0,1,.81.21c.16.05.19.28.19.7v5.83a2.84,2.84,0,0,0,.32,1.47h0a2.45,2.45,0,0,0,2.39,1.22,3.69,3.69,0,0,0,2.08-.65,2.28,2.28,0,0,0,.55-.54h0a3.15,3.15,0,0,1-1.73.48,2.24,2.24,0,0,1-2-.87,3.16,3.16,0,0,1-.33-1.66c0-.93-.08-5.26-.08-5.72,0-.28.13-.38.52-.38l1.43,0h1.93a.86.86,0,0,0,.15-.57.34.34,0,0,0-.07-.21l-2,0-1.63,0c-.16,0-.27-.14-.27-.35a9.58,9.58,0,0,1,.06-1.28s-.1,0-.16.12a5.32,5.32,0,0,1-2.22,1.87Z"/><path class="cls-2" d="M198.24,33.76A.3.3,0,0,1,198,34c-.2,0-3.92-.08-4.51-.08h-1.7c-.06,0-.23.17-.28.25a3.59,3.59,0,0,0-.26,1.68,5.12,5.12,0,0,0,1.32,3.42,3.86,3.86,0,0,0,2.94,1.2,3.69,3.69,0,0,0,2.69-.92c.25-.23.33-.17.33-.06a1,1,0,0,1-.31.48,4.83,4.83,0,0,1-3.8,1.62,4.42,4.42,0,0,1-3.25-1.43,5.35,5.35,0,0,1-1.34-3.75,5.87,5.87,0,0,1,1.51-4A5.21,5.21,0,0,1,194.86,31C196.34,31,198.24,32,198.24,33.76Zm-5.88-1.32a2.25,2.25,0,0,0-.56,1,.12.12,0,0,0,.09.11l4.06,0c.56,0,.61-.26.61-.51a1.64,1.64,0,0,0-.39-1.12,2.32,2.32,0,0,0-1.57-.56A3.41,3.41,0,0,0,192.36,32.44Z"/><path class="cls-2" d="M194.41,41.72a4.54,4.54,0,0,1-3.34-1.46,5.49,5.49,0,0,1-1.38-3.84,6.12,6.12,0,0,1,1.55-4.09,5.38,5.38,0,0,1,3.62-1.5c1.47,0,3.51,1,3.51,2.93a.43.43,0,0,1-.38.38l-1.31,0-3.2-.06h-1.7a.93.93,0,0,0-.18.2,3.47,3.47,0,0,0-.23,1.61,5,5,0,0,0,1.28,3.33,3.8,3.8,0,0,0,2.85,1.17,3.52,3.52,0,0,0,2.6-.9c.13-.11.29-.23.43-.17a.21.21,0,0,1,.12.21,1.1,1.1,0,0,1-.35.56A4.94,4.94,0,0,1,194.41,41.72Zm.45-10.64a5.11,5.11,0,0,0-3.44,1.42,5.9,5.9,0,0,0-1.48,3.92,5.25,5.25,0,0,0,1.31,3.67,4.31,4.31,0,0,0,3.16,1.38,4.72,4.72,0,0,0,3.72-1.58,1.17,1.17,0,0,0,.24-.32l-.1.08a3.77,3.77,0,0,1-2.77,1,4,4,0,0,1-3-1.25,5.27,5.27,0,0,1-1.34-3.5,3.87,3.87,0,0,1,.26-1.74s.23-.32.4-.32h1.7l3.2.06,1.31,0a.21.21,0,0,0,.13-.13C198.12,32,196.19,31.08,194.86,31.08Zm-3,2.61a.24.24,0,0,1-.21-.24,2.22,2.22,0,0,1,.59-1.09h0a3.5,3.5,0,0,1,2.32-1.12,2.46,2.46,0,0,1,1.66.59,1.8,1.8,0,0,1,.43,1.21c0,.29-.08.63-.74.63Zm0-.24Zm.52-.92a2.18,2.18,0,0,0-.52.91l4,0c.49,0,.49-.19.49-.38a1.55,1.55,0,0,0-.36-1,2.21,2.21,0,0,0-1.48-.52A3.25,3.25,0,0,0,192.45,32.53Z"/><path class="cls-2" d="M202,33.2a2.81,2.81,0,0,0,1.65,2.24c1.85,1.18,2.58,1.88,2.58,3.3a2.74,2.74,0,0,1-1.52,2.33,4,4,0,0,1-2,.56,5.17,5.17,0,0,1-2.13-.51.53.53,0,0,1-.36-.42c0-.39-.06-1-.09-1.34s0-.42.09-.42.14,0,.33.53a2.69,2.69,0,0,0,1.18,1.43,2.42,2.42,0,0,0,1.2.34,2.08,2.08,0,0,0,1.91-2c0-1.15-.79-1.74-1.79-2.38s-2.33-1.62-2.33-3a2.66,2.66,0,0,1,.9-2.07,3.56,3.56,0,0,1,2.35-.84,6.18,6.18,0,0,1,1.79.31.38.38,0,0,1,.14.22c0,.31.14.9.17,1.23s-.06.45-.14.45-.14-.14-.22-.33a2.16,2.16,0,0,0-.68-1.07,2.24,2.24,0,0,0-1.26-.39A1.66,1.66,0,0,0,202,33.2Z"/><path class="cls-2" d="M202.66,41.75a5.4,5.4,0,0,1-2.18-.51.65.65,0,0,1-.44-.54c0-.33,0-.84-.07-1.18v-.15a.61.61,0,0,1,0-.48.21.21,0,0,1,.16-.08c.15,0,.26.1.45.62a2.51,2.51,0,0,0,1.12,1.36,2.34,2.34,0,0,0,1.14.32,1.94,1.94,0,0,0,1.78-1.89c0-1.08-.75-1.65-1.73-2.28s-2.38-1.69-2.38-3.07a2.8,2.8,0,0,1,.93-2.16,3.73,3.73,0,0,1,2.44-.88,6.24,6.24,0,0,1,1.83.32.49.49,0,0,1,.23.34c0,.13,0,.33.07.54s.08.5.09.68,0,.59-.26.59-.24-.16-.3-.31a.76.76,0,0,0,0-.11l0-.09a1.86,1.86,0,0,0-.59-.92,2.18,2.18,0,0,0-1.19-.37,1.56,1.56,0,0,0-1.61,1.7,2.62,2.62,0,0,0,1.59,2.13c1.87,1.19,2.64,1.92,2.64,3.41a2.86,2.86,0,0,1-1.57,2.44A4.22,4.22,0,0,1,202.66,41.75Zm-2.47-2.66a1.46,1.46,0,0,0,0,.25v.16c0,.34.07.86.07,1.2a.43.43,0,0,0,.28.31,5.2,5.2,0,0,0,2.09.49,3.93,3.93,0,0,0,2-.54,2.62,2.62,0,0,0,1.45-2.22c0-1.35-.66-2-2.52-3.19a3,3,0,0,1-1.71-2.35,1.81,1.81,0,0,1,1.86-2,2.39,2.39,0,0,1,1.34.42,2.19,2.19,0,0,1,.68,1l0,.09,0,.11a.37.37,0,0,0,.05.11,1.4,1.4,0,0,0,0-.29c0-.16,0-.41-.09-.66s-.06-.41-.07-.56a.36.36,0,0,0-.08-.12,5.89,5.89,0,0,0-1.73-.3,3.44,3.44,0,0,0-2.27.82,2.52,2.52,0,0,0-.85,2c0,1.26,1.21,2.19,2.26,2.86s1.85,1.28,1.85,2.49a2.2,2.2,0,0,1-2,2.14,2.6,2.6,0,0,1-1.27-.35,2.79,2.79,0,0,1-1.22-1.5A1.77,1.77,0,0,0,200.19,39.09Z"/></svg>